grf
version=1
nRows=18
nColumns=46
inDegrees=yes
endheader
time	ground_force_1_vx	ground_force_1_vy	ground_force_1_vz	ground_force_1_px	ground_force_1_py	ground_force_1_pz	ground_moment_1_mx	ground_moment_1_my	ground_moment_1_mz	ground_force_2_vx	ground_force_2_vy	ground_force_2_vz	ground_force_2_px	ground_force_2_py	ground_force_2_pz	ground_moment_2_mx	ground_moment_2_my	ground_moment_2_mz	ground_force_3_vx	ground_force_3_vy	ground_force_3_vz	ground_force_3_px	ground_force_3_py	ground_force_3_pz	ground_moment_3_mx	ground_moment_3_my	ground_moment_3_mz	ground_force_4_vx	ground_force_4_vy	ground_force_4_vz	ground_force_4_px	ground_force_4_py	ground_force_4_pz	ground_moment_4_mx	ground_moment_4_my	ground_moment_4_mz	ground_force_5_vx	ground_force_5_vy	ground_force_5_vz	ground_force_5_px	ground_force_5_py	ground_force_5_pz	ground_moment_5_mx	ground_moment_5_my	ground_moment_5_mz
1.152500	0.000000	0.000000	0.000000	0.000000	0.000000	0.000000	0.000000	0.000000	0.000000	0.000000	0.000000	0.000000	0.000000	0.000000	0.000000	0.000000	0.000000	0.000000	0.000000	0.000000	0.000000	0.000000	0.000000	0.000000	0.000000	0.000000	0.000000	-7.097663	602.533635	-51.236964	0.194110	0.000000	-0.896174	-0.000000	10.628836	0.000000	-3.541434	578.378638	57.361511	0.226497	0.000000	-1.584149	0.000000	-9.617498	-0.000000
1.153000	0.000000	0.000000	0.000000	0.000000	0.000000	0.000000	0.000000	0.000000	0.000000	0.000000	0.000000	0.000000	0.000000	0.000000	0.000000	0.000000	0.000000	0.000000	0.000000	0.000000	0.000000	0.000000	0.000000	0.000000	0.000000	0.000000	0.000000	-7.141947	602.535389	-51.081705	0.194123	0.000000	-0.896192	-0.000000	10.638897	0.000000	-3.524644	578.591065	57.147823	0.226494	0.000000	-1.584109	0.000000	-9.628580	-0.000000
1.153500	0.000000	0.000000	0.000000	0.000000	0.000000	0.000000	0.000000	0.000000	0.000000	0.000000	0.000000	0.000000	0.000000	0.000000	0.000000	0.000000	0.000000	0.000000	0.000000	0.000000	0.000000	0.000000	0.000000	0.000000	0.000000	0.000000	0.000000	-7.188076	602.532817	-50.927362	0.194136	0.000000	-0.896210	-0.000000	10.648915	0.000000	-3.509676	578.808539	56.936125	0.226492	0.000000	-1.584070	0.000000	-9.639687	-0.000000
1.154000	0.000000	0.000000	0.000000	0.000000	0.000000	0.000000	0.000000	0.000000	0.000000	0.000000	0.000000	0.000000	0.000000	0.000000	0.000000	0.000000	0.000000	0.000000	0.000000	0.000000	0.000000	0.000000	0.000000	0.000000	0.000000	0.000000	0.000000	-7.236035	602.525950	-50.773925	0.194149	0.000000	-0.896228	-0.000000	10.658887	0.000000	-3.496515	579.031136	56.726427	0.226489	0.000000	-1.584030	0.000000	-9.650818	-0.000000
1.154500	0.000000	0.000000	0.000000	0.000000	0.000000	0.000000	0.000000	0.000000	0.000000	0.000000	0.000000	0.000000	0.000000	0.000000	0.000000	0.000000	0.000000	0.000000	0.000000	0.000000	0.000000	0.000000	0.000000	0.000000	0.000000	0.000000	0.000000	-7.285808	602.514839	-50.621382	0.194162	0.000000	-0.896245	-0.000000	10.668810	0.000000	-3.485141	579.258893	56.518737	0.226486	0.000000	-1.583991	0.000000	-9.661970	-0.000000
1.155000	0.000000	0.000000	0.000000	0.000000	0.000000	0.000000	0.000000	0.000000	0.000000	0.000000	0.000000	0.000000	0.000000	0.000000	0.000000	0.000000	0.000000	0.000000	0.000000	0.000000	0.000000	0.000000	0.000000	0.000000	0.000000	0.000000	0.000000	-7.337372	602.499558	-50.469716	0.194176	0.000000	-0.896262	-0.000000	10.678682	0.000000	-3.475522	579.491803	56.313056	0.226482	0.000000	-1.583953	0.000000	-9.673141	-0.000000
1.155500	0.000000	0.000000	0.000000	0.000000	0.000000	0.000000	0.000000	0.000000	0.000000	0.000000	0.000000	0.000000	0.000000	0.000000	0.000000	0.000000	0.000000	0.000000	0.000000	0.000000	0.000000	0.000000	0.000000	0.000000	0.000000	0.000000	0.000000	-7.390703	602.480193	-50.318902	0.194189	0.000000	-0.896279	-0.000000	10.688498	0.000000	-3.467617	579.729828	56.109381	0.226479	0.000000	-1.583914	0.000000	-9.684323	-0.000000
1.156000	0.000000	0.000000	0.000000	0.000000	0.000000	0.000000	0.000000	0.000000	0.000000	0.000000	0.000000	0.000000	0.000000	0.000000	0.000000	0.000000	0.000000	0.000000	0.000000	0.000000	0.000000	0.000000	0.000000	0.000000	0.000000	0.000000	0.000000	-7.445771	602.456842	-50.168909	0.194203	0.000000	-0.896295	-0.000000	10.698256	0.000000	-3.461375	579.972897	55.907706	0.226476	0.000000	-1.583876	0.000000	-9.695512	-0.000000
1.156500	0.000000	0.000000	0.000000	0.000000	0.000000	0.000000	0.000000	0.000000	0.000000	0.000000	0.000000	0.000000	0.000000	0.000000	0.000000	0.000000	0.000000	0.000000	0.000000	0.000000	0.000000	0.000000	0.000000	0.000000	0.000000	0.000000	0.000000	-7.502544	602.429604	-50.019695	0.194217	0.000000	-0.896311	-0.000000	10.707950	0.000000	-3.456731	580.220913	55.708016	0.226473	0.000000	-1.583838	0.000000	-9.706701	-0.000000
1.157000	0.000000	0.000000	0.000000	0.000000	0.000000	0.000000	0.000000	0.000000	0.000000	0.000000	0.000000	0.000000	0.000000	0.000000	0.000000	0.000000	0.000000	0.000000	0.000000	0.000000	0.000000	0.000000	0.000000	0.000000	0.000000	0.000000	0.000000	-7.560987	602.398588	-49.871218	0.194232	0.000000	-0.896327	-0.000000	10.717574	0.000000	-3.453610	580.473756	55.510296	0.226470	0.000000	-1.583800	0.000000	-9.717883	-0.000000
1.157500	0.000000	0.000000	0.000000	0.000000	0.000000	0.000000	0.000000	0.000000	0.000000	0.000000	0.000000	0.000000	0.000000	0.000000	0.000000	0.000000	0.000000	0.000000	0.000000	0.000000	0.000000	0.000000	0.000000	0.000000	0.000000	0.000000	0.000000	-7.621060	602.363916	-49.723423	0.194246	0.000000	-0.896343	-0.000000	10.727123	0.000000	-3.451927	580.731289	55.314524	0.226467	0.000000	-1.583763	0.000000	-9.729050	-0.000000
1.158000	0.000000	0.000000	0.000000	0.000000	0.000000	0.000000	0.000000	0.000000	0.000000	0.000000	0.000000	0.000000	0.000000	0.000000	0.000000	0.000000	0.000000	0.000000	0.000000	0.000000	0.000000	0.000000	0.000000	0.000000	0.000000	0.000000	0.000000	-7.682721	602.325732	-49.576251	0.194261	0.000000	-0.896358	-0.000000	10.736591	0.000000	-3.451589	580.993361	55.120669	0.226464	0.000000	-1.583726	0.000000	-9.740197	-0.000000
1.158500	0.000000	0.000000	0.000000	0.000000	0.000000	0.000000	0.000000	0.000000	0.000000	0.000000	0.000000	0.000000	0.000000	0.000000	0.000000	0.000000	0.000000	0.000000	0.000000	0.000000	0.000000	0.000000	0.000000	0.000000	0.000000	0.000000	0.000000	-7.745924	602.284192	-49.429637	0.194276	0.000000	-0.896373	-0.000000	10.745972	0.000000	-3.452494	581.259817	54.928692	0.226462	0.000000	-1.583689	0.000000	-9.751317	-0.000000
1.159000	0.000000	0.000000	0.000000	0.000000	0.000000	0.000000	0.000000	0.000000	0.000000	0.000000	0.000000	0.000000	0.000000	0.000000	0.000000	0.000000	0.000000	0.000000	0.000000	0.000000	0.000000	0.000000	0.000000	0.000000	0.000000	0.000000	0.000000	-7.810619	602.239467	-49.283513	0.194291	0.000000	-0.896387	-0.000000	10.755262	0.000000	-3.454537	581.530500	54.738542	0.226459	0.000000	-1.583652	0.000000	-9.762404	-0.000000
1.159500	0.000000	0.000000	0.000000	0.000000	0.000000	0.000000	0.000000	0.000000	0.000000	0.000000	0.000000	0.000000	0.000000	0.000000	0.000000	0.000000	0.000000	0.000000	0.000000	0.000000	0.000000	0.000000	0.000000	0.000000	0.000000	0.000000	0.000000	-7.876754	602.191736	-49.137812	0.194307	0.000000	-0.896402	-0.000000	10.764460	0.000000	-3.457610	581.805247	54.550159	0.226456	0.000000	-1.583616	0.000000	-9.773456	-0.000000
1.160000	0.000000	0.000000	0.000000	0.000000	0.000000	0.000000	0.000000	0.000000	0.000000	0.000000	0.000000	0.000000	0.000000	0.000000	0.000000	0.000000	0.000000	0.000000	0.000000	0.000000	0.000000	0.000000	0.000000	0.000000	0.000000	0.000000	0.000000	-7.944268	602.141186	-48.992472	0.194322	0.000000	-0.896416	-0.000000	10.773566	0.000000	-3.461612	582.083881	54.363477	0.226454	0.000000	-1.583580	0.000000	-9.784466	-0.000000
1.160500	0.000000	0.000000	0.000000	0.000000	0.000000	0.000000	0.000000	0.000000	0.000000	0.000000	0.000000	0.000000	0.000000	0.000000	0.000000	0.000000	0.000000	0.000000	0.000000	0.000000	0.000000	0.000000	0.000000	0.000000	0.000000	0.000000	0.000000	-8.013099	602.088017	-48.847431	0.194338	0.000000	-0.896430	-0.000000	10.782581	0.000000	-3.466450	582.366208	54.178430	0.226452	0.000000	-1.583544	0.000000	-9.795432	-0.000000
1.161000	0.000000	0.000000	0.000000	0.000000	0.000000	0.000000	0.000000	0.000000	0.000000	0.000000	0.000000	0.000000	0.000000	0.000000	0.000000	0.000000	0.000000	0.000000	0.000000	0.000000	0.000000	0.000000	0.000000	0.000000	0.000000	0.000000	0.000000	-8.083181	602.032446	-48.702626	0.194354	0.000000	-0.896443	-0.000000	10.791506	0.000000	-3.472044	582.652016	53.994946	0.226449	0.000000	-1.583508	0.000000	-9.806346	-0.000000
